<?xml version="1.0" encoding="UTF-8"?>
<svg id="uuid-2d9faec8-9649-4fd3-8b75-c303a8b1e3f6" data-name="Layer 1" xmlns="http://www.w3.org/2000/svg" viewBox="0 0 512 512">
  <defs>
    <style>
      .uuid-1dd69741-ac36-4098-9867-1685cfaf218e {
        fill: #17a63b;
      }
    </style>
  </defs>
  <path class="uuid-1dd69741-ac36-4098-9867-1685cfaf218e" d="m195.76,335.37c-27.73,0-50.2,22.49-50.2,50.24s22.47,50.23,50.2,50.23,50.25-22.48,50.25-50.23-22.48-50.24-50.25-50.24Zm0,71.47c-11.7,0-21.19-9.51-21.19-21.23s9.49-21.22,21.19-21.22,21.23,9.51,21.23,21.22-9.48,21.23-21.23,21.23Z"/>
  <path class="uuid-1dd69741-ac36-4098-9867-1685cfaf218e" d="m362.92,335.37c-27.72,0-50.2,22.49-50.2,50.24s22.48,50.23,50.2,50.23,50.27-22.48,50.27-50.23-22.49-50.24-50.27-50.24Zm0,71.47c-11.68,0-21.19-9.51-21.19-21.23s9.51-21.22,21.19-21.22,21.24,9.51,21.24,21.22-9.49,21.23-21.24,21.23Z"/>
  <path class="uuid-1dd69741-ac36-4098-9867-1685cfaf218e" d="m512,334.4v-69.37l-5.09-6.52-6.24-.5-.46-7.6-27.84-86.71s-2.3-10.59-17.91-10.59h-135.66l.61,151.45s-11.6,1.62-21.72,14.48l-4.2-136.8-25.25-26.59-86.67-79.49-100.74,35.59.49.71h-9.99v2.81h-11.4v3.74l-16.14,10.57s2.13-2.35-4.38-4.48c0,0-4.11-.37-7.84,5.36l-6.68,9.15s-4.48,26.05-.55,36.1c0,0,9.83,28.03,40.68,28.94,0,0-41.24-20.28-22.41-48.24,0,0,1.18-1.39,3.34-2.81,0,0,2.53-1.44,6.49-1.44h59.98c3.92,0,6.48,1.44,6.48,1.44,2.19,1.42,3.38,2.5,3.38,2.5,18.83,27.96-22.4,48.38-22.4,48.38,30.81-.88,40.65-28.84,40.65-28.84,3.94-10.05-.53-36.03-.53-36.03l-6.53-9.15c-3.75-5.72-7.62-5.36-7.62-5.36-6.47,2.13-3.48,4.48-3.48,4.48l-12.39-8.84,71.58-17.54,75,85.01.08,39.52L0,226.14v135.2h11.1c9.28-25.3,33.36-43.45,61.88-43.45s51.96,17.62,61.52,42.35c9.57-24.73,33.42-42.35,61.53-42.35s52.59,18.16,61.88,43.45h8.66l-.05,18.45h34.21s.18-8.39,2.27-18.45h.13l1.88-7.91c4.04-13.26,11.87-26.46,27.04-26l47.61-.18s47.93,4.24,47.93,62.41h48.69l7.71-4.94h18.44s9.52,1.06,9.52-7.05v-16.56s1.3-8.91-11.04-8.91v-11.89l11.09-5.91Zm-41.4-86.46h-80.02c-7.48,0-7.4-7.87-7.4-7.87v-52.06c0-10.7,8.92-9.53,8.92-9.53h60.16c8.81,0,10.33,6.7,10.33,6.7l13.68,53.94c3.91,10.5-5.68,8.82-5.68,8.82Z"/>
  <path class="uuid-1dd69741-ac36-4098-9867-1685cfaf218e" d="m72.95,335.37c-27.73,0-50.23,22.49-50.23,50.24s22.49,50.23,50.23,50.23,50.24-22.48,50.24-50.23-22.49-50.24-50.24-50.24Zm0,71.47c-11.7,0-21.21-9.51-21.21-21.23s9.51-21.22,21.21-21.22,21.22,9.51,21.22,21.22-9.48,21.23-21.22,21.23Z"/>
</svg>