<svg xmlns="http://www.w3.org/2000/svg" id="Layer_2" data-name="Layer 2" viewBox="0 0 333.81 162.22"><defs><style>      .cls-1 {        fill: #fcdd43;        stroke-width: 0px;      }    </style></defs><g id="Layer_2-2" data-name="Layer 2"><g><polygon class="cls-1" points="46.15 16.67 73.59 16.67 73.59 55.11 19.37 55.11 19.37 44.33 46.15 16.67"></polygon><polygon class="cls-1" points="295.59 0 166.47 0 166.34 0 37.22 0 0 38.26 8.81 46.85 43.89 11.56 166.34 11.56 166.47 11.56 288.93 11.56 325 46.85 333.81 38.26 295.59 0"></polygon><polygon class="cls-1" points="286.67 16.67 259.22 16.67 259.22 55.11 313.44 55.11 313.44 44.33 286.67 16.67"></polygon><polygon class="cls-1" points="166.78 16.74 166.04 16.74 80.26 16.74 80.26 54.67 166.04 54.67 166.78 54.67 252.56 54.67 252.56 16.74 166.78 16.74"></polygon><polygon class="cls-1" points="167.67 60.89 165.15 60.89 19.81 60.89 71.96 162.22 165.15 162.22 167.67 162.22 260.85 162.22 313 60.89 167.67 60.89"></polygon></g></g></svg>